<?xml version="1.0" encoding="UTF-8" standalone="no"?>
<!-- Created with Inkscape (http://www.inkscape.org/) -->

<svg
   width="512"
   height="512"
   viewBox="0 0 512 512"
   version="1.1"
   id="svg1"
   xml:space="preserve"
   xmlns:xlink="http://www.w3.org/1999/xlink"
   xmlns="http://www.w3.org/2000/svg"
   xmlns:svg="http://www.w3.org/2000/svg"><defs
     id="defs1"><linearGradient
       id="linearGradient50"><stop
         style="stop-color:#3f5efb;stop-opacity:1;"
         offset="0"
         id="stop50" /><stop
         style="stop-color:#fc466b;stop-opacity:1;"
         offset="1"
         id="stop51" /></linearGradient><linearGradient
       xlink:href="#linearGradient50"
       id="linearGradient51"
       x1="36.138092"
       y1="89.347694"
       x2="482.65039"
       y2="401.30725"
       gradientUnits="userSpaceOnUse" /><linearGradient
       xlink:href="#linearGradient50"
       id="linearGradient52"
       gradientUnits="userSpaceOnUse"
       x1="36.138092"
       y1="89.347694"
       x2="482.65039"
       y2="401.30725" /><linearGradient
       xlink:href="#linearGradient50"
       id="linearGradient53"
       gradientUnits="userSpaceOnUse"
       x1="36.138092"
       y1="89.347694"
       x2="482.65039"
       y2="401.30725" /></defs><g
     id="layer2"
     style="display:inline"><g
       id="g53"
       transform="translate(-9.9917746)"><rect
         style="display:inline;opacity:1;fill:none;stroke-width:1.20338"
         id="rect50"
         width="512"
         height="512"
         x="9.9917746"
         y="0" /><path
         d="m 390.42961,89.350636 c -0.64849,-0.01015 -1.29021,0.0063 -1.92328,0.04808 -15.19571,0.99586 -25.89605,16.133014 -25.89605,16.133014 -19.45766,18.12905 -41.82969,29.17652 -41.82969,29.17652 -25.16942,16.25791 -23.43593,31.66906 -23.64227,34.4187 -0.22921,3.0545 -0.41033,8.41376 4.32902,21.1017 1.57332,4.03605 3.49189,8.03712 5.68761,11.86094 2.18685,4.25129 4.79157,8.28539 7.71722,12.01983 11.12676,14.20273 26.7356,23.99152 40.51503,23.99166 5.23167,-5e-5 9.58895,-1.49107 13.08157,-4.02263 0.7958,-0.54258 1.51413,-1.12622 2.18877,-1.73322 2.63546,-2.55118 4.59589,-5.84261 5.76292,-9.74338 2.23437,-7.46831 1.64378,-17.0714 -2.34179,-27.55787 -7.67993,-20.20471 -25.52878,-37.26804 -42.7152,-41.84125 -0.308,-0.082 -0.61306,-0.12937 -0.92058,-0.20326 0.31162,0.15328 0.6013,0.3096 0.90745,0.4638 9.77102,4.92175 16.80149,10.28851 21.80422,15.36803 4.77813,5.48185 8.79979,11.93826 11.42634,18.8474 0.79677,2.09643 1.40152,4.13741 1.88727,6.13466 0.17039,0.70066 0.32337,1.39275 0.45651,2.07876 0.0428,0.23183 0.0806,0.45739 0.12071,0.68551 0.18386,1.03679 0.32818,2.05448 0.42752,3.05256 1.37586,13.82471 -5.23282,23.74043 -17.4613,23.74034 -0.56546,0 -1.14268,-0.0655 -1.71575,-0.1072 -15.17398,-1.10499 -32.76441,-16.5899 -39.98341,-35.58465 -3.04125,-8.00404 -4.13242,-15.65767 -2.48996,-21.32158 1.26933,-4.37721 7.88697,-11.09626 12.03618,-13.88611 11.54674,-7.76383 25.40228,-12.66473 25.40228,-12.66473 20.78547,-9.3478 47.38824,-43.339784 47.38824,-43.339784 0,0 -10.12361,45.040394 4.43057,169.111134 0.56623,4.82685 1.03693,9.41274 1.46082,13.87688 -18.37322,-2.49079 -42.16743,-1.13105 -42.16743,-1.13105 -25.65809,-25.21073 -47.80608,-14.16309 -47.80608,-14.16309 -37.46412,12.46374 -12.54746,74.49901 -12.54746,74.49901 32.22137,66.56766 86.98254,62.60297 86.98254,62.60297 44.09893,-7.93147 40.26952,-69.11825 40.26952,-69.11825 1.34541,-8.28469 0.69502,-23.20058 -0.69321,-39.50011 0.15226,0.009 2.02866,0.12572 2.02866,0.12572 86.23217,-11.04741 54.2382,-85.82963 54.2382,-85.82963 2.51128,51.50086 -33.05079,66.54625 -57.66607,70.86625 -3.37439,-31.56168 -8.53024,-63.50098 -8.53024,-63.50098 -8.56889,-49.57163 -14.83742,-96.02753 -14.83742,-96.02753 -2.78324,-24.360933 9.15946,-24.076647 9.15946,-24.076647 -5.10506,-3.408051 -10.00314,-4.782342 -14.54141,-4.850442 z M 323.5765,269.74066 c 1.68476,0.0184 10.62823,1.88297 21.07238,9.92811 -11.68786,2.16586 -20.66911,9.71046 -24.86786,21.42138 -3.41546,7.27385 -1.85839,16.0216 2.00142,26.43994 3.04661,7.71193 6.33145,13.13172 11.48743,19.00818 4.54818,5.18372 10.4711,8.90611 15.80351,10.95737 21.33388,8.20663 28.73028,-6.0997 30.85915,-12.27365 2.13572,-7.01774 2.2075,-16.28649 -0.23718,-26.39126 -2.86817,-11.55934 -8.64685,-22.48992 -15.81356,-29.91195 11.09907,0.79854 23.12191,1.60918 33.64492,2.28202 3.82799,52.49345 -2.69666,77.53001 -10.17832,89.44321 -12.3482,19.66235 -34.12431,7.28653 -44.50367,-0.37535 -8.29229,-6.12122 -15.32241,-14.04386 -21.01045,-21.88681 -21.30714,-29.37938 -27.41694,-60.11414 -14.68068,-80.32164 5.47792,-7.58963 10.06772,-8.38914 16.42291,-8.31955 z m 30.66369,19.1874 c 5.4701,6.66659 10.37443,15.51161 13.21981,27.35277 1.37771,5.73344 2.08144,10.43484 2.36976,14.44043 0.38906,5.40492 -0.0597,9.38747 -1.01485,12.29516 -3.26824,9.949 -12.21929,7.54082 -12.21929,7.54082 -4.09593,-0.4775 -7.59686,-1.74666 -10.65684,-3.45536 -1.70343,-0.9512 -3.27056,-2.02917 -4.68674,-3.23363 -5.56575,-4.73361 -9.01368,-11.06366 -11.07017,-16.2103 -4.22575,-9.95832 -3.25122,-18.2177 0.0252,-24.67009 1.44605,-2.64393 3.3219,-4.80959 5.44442,-6.56888 6.09278,-5.05012 14.03504,-6.8593 18.58869,-7.49092 z"
         style="display:inline;fill:url(#linearGradient52);stroke-width:0.864865"
         id="path31"
         transform="matrix(1.1019102,0,0,1.0270776,-19.837392,2.3547971)" /><path
         d="m 264.24838,89.719342 c -5.5537,1.509978 -11.18084,4.034649 -16.16431,7.018798 -1.99586,1.220449 -3.8807,2.62255 -5.72877,4.17089 -1.89792,1.59011 -3.83692,3.39993 -5.85558,5.38488 -2.68568,2.64083 -5.02694,5.51505 -7.12505,8.68273 -2.27295,3.43163 -4.19119,7.10655 -5.87147,10.92332 -4.33512,9.84721 -7.52064,21.82583 -9.69808,30.8365 0,0 -72.85628,-20.12857 -111.41618,-9.96194 -2.570634,0.67781 -4.989519,1.49076 -7.223563,2.45277 -29.686265,11.52186 -39.44613,21.13868 -52.89477,48.10226 -0.118997,0.2386 -0.232859,0.44503 -0.352455,0.68636 -0.304862,0.56826 -0.603509,1.14807 -0.886459,1.76044 -4.473138,9.68088 -6.177426,24.7152 -3.859681,40.67952 2.834198,19.42795 10.962274,35.20842 20.258669,39.33169 0.307835,0.12798 0.616664,0.24671 0.925354,0.36504 18.288845,7.01049 37.984441,-2.78538 48.009015,-15.1627 5.68375,-6.97992 10.04055,-15.71359 12.5951,-25.16484 0.0689,-0.2547 0.15174,-0.50377 0.21793,-0.75949 1.72766,-6.76718 2.43099,-13.45679 2.23463,-19.7778 l -2.8351,-10.5807 c -1.25155,-4.66991 -3.6709,-8.07889 -5.40414,-7.61468 l -4.1465,1.11105 c -1.13937,0.35188 -1.73141,2.3514 -1.54762,5.22668 3.07098,5.05226 4.99172,11.30799 5.33165,18.35382 0.0495,1.10543 0.0483,2.21153 0.0189,3.31657 -0.38522,14.54295 -7.46826,28.82193 -18.485768,36.78865 -1.456576,1.05493 -2.962156,1.98408 -4.503973,2.77955 -2.3592,1.2186 -4.790375,2.1175 -7.245355,2.67889 -2.952267,0.6709 -5.830314,0.82979 -8.584623,0.54746 -5.47459,-0.56114 -10.453251,-2.89579 -14.506616,-6.63345 -15.061647,-13.88854 -12.025133,-44.8418 -9.316288,-55.27255 1.78891,-6.88926 4.672331,-13.51253 8.630496,-19.88628 0,0 9.403511,-14.81633 34.163492,-25.02676 15.805395,-6.51777 37.568195,-11.53255 59.915385,-8.11028 9.83215,1.5057 26.85793,5.78371 40.43018,7.84773 6.15681,0.93631 14.85404,1.80159 20.40734,2.33221 l -0.65345,-0.051 c 0,0 5.06649,128.79772 -1.28052,147.73344 0,0 -16.97908,-78.09388 -74.13972,-144.17699 0,0 14.69282,121.48303 -18.01662,190.05104 -32.709443,68.568 -50.858325,-3.81412 -50.858325,-3.81412 0,0 -6.172661,-27.79997 5.827612,-52.64489 l -8.759607,0.73802 c 0,0 -30.417046,81.56676 25.000184,95.49674 55.417236,13.92999 59.640236,-152.24124 59.640236,-152.24124 0,0 39.07939,73.51692 46.79614,139.57906 0,0 32.20086,-57.37733 29.1511,-132.32523 l -2.44889,-87.54393 -2.02107,-0.15765 c 25.79677,1.45291 99.15808,0.26834 76.6707,-64.36137 -7.37408,-12.367887 -21.04607,-15.226457 -34.39365,-13.708267 z m -1.09782,10.887448 c 3.58635,-0.887112 7.39716,-1.277734 10.99474,-0.768 1.43774,0.20372 2.84263,0.54637 4.18354,1.06473 4.44354,1.71773 8.88555,4.97938 11.43388,9.11379 l 4.9e-4,0.002 c 0.71153,1.15465 1.2828,2.37294 1.65612,3.64988 2.67459,12.80505 -7.9507,31.57118 -18.17034,39.13122 -11.20102,8.8696 -24.4468,9.80293 -34.04599,8.87931 -0.30297,-0.0292 -0.59878,-0.0591 -0.89427,-0.0918 -7.23789,-0.8004 -12.19807,-2.59328 -12.19807,-2.59328 0.13243,-0.72387 0.26716,-1.33014 0.39984,-2.03231 4.50983,-23.86808 9.19336,-35.44224 16.2816,-43.24174 7.29677,-8.02899 10.50226,-9.92467 17.14003,-12.17078 0.55632,-0.18829 1.12256,-0.3664 1.69615,-0.53304 0.50189,-0.14576 1.00995,-0.28307 1.52227,-0.40985 z"
         style="display:inline;opacity:1;fill:url(#linearGradient53);stroke-width:0.947369"
         id="path50"
         transform="matrix(1.1019102,0,0,1.0270776,-19.837392,2.3547971)" /><g
         id="g50"
         transform="matrix(1.1019102,0,0,1.0270776,-19.837392,2.3547971)"
         style="fill:url(#linearGradient51)" /></g></g></svg>
